<svg xmlns="http://www.w3.org/2000/svg" viewBox="0 0 512 512" width="512" height="512">
  <defs>
    <linearGradient id="arcGrad" x1="0" y1="79.0" x2="0" y2="433.0" gradientUnits="userSpaceOnUse">
      <stop offset="0%"   stop-color="#7BAFD4"/>
      <stop offset="100%" stop-color="#1A4D82"/>
    </linearGradient>
    <clipPath id="arcClip">
      <path d="M 195.46,422.33 L 190.90,420.43 L 186.39,418.40 L 181.95,416.25 L 177.58,413.99 L 173.27,411.60 L 169.03,409.09 L 164.87,406.47 L 160.79,403.74 L 156.79,400.89 L 152.87,397.94 L 149.04,394.88 L 145.31,391.72 L 141.66,388.46 L 138.11,385.10 L 134.66,381.65 L 131.31,378.11 L 128.06,374.47 L 124.92,370.75 L 121.89,366.95 L 118.96,363.06 L 116.15,359.10 L 113.46,355.07 L 110.88,350.97 L 108.41,346.80 L 106.07,342.56 L 103.85,338.27 L 101.75,333.92 L 99.77,329.52 L 97.92,325.06 L 96.20,320.56 L 94.60,316.02 L 93.14,311.44 L 91.80,306.83 L 90.60,302.18 L 89.52,297.51 L 88.58,292.81 L 87.77,288.09 L 87.09,283.36 L 86.55,278.61 L 86.14,273.85 L 85.86,269.09 L 85.71,264.33 L 85.70,259.57 L 85.82,254.81 L 86.08,250.07 L 86.47,245.33 L 86.98,240.62 L 87.63,235.92 L 88.41,231.25 L 89.32,226.61 L 90.36,222.00 L 91.52,217.42 L 92.81,212.88 L 94.23,208.39 L 95.77,203.94 L 97.43,199.54 L 99.22,195.19 L 101.12,190.89 L 103.14,186.66 L 105.27,182.49 L 107.52,178.38 L 109.88,174.34 L 112.35,170.37 L 114.93,166.47 L 117.61,162.66 L 120.40,158.92 L 123.29,155.26 L 126.27,151.70 L 129.35,148.21 L 132.53,144.82 L 135.79,141.53 L 139.14,138.32 L 142.58,135.22 L 146.10,132.22 L 149.70,129.32 L 153.37,126.52 L 157.12,123.83 L 160.94,121.24 L 164.83,118.77 L 168.78,116.41 L 172.79,114.16 L 176.85,112.03 L 180.97,110.02 L 185.15,108.12 L 189.37,106.34 L 193.63,104.68 L 197.93,103.14 L 202.28,101.73 L 206.65,100.43 L 211.06,99.27 L 215.49,98.22 L 219.95,97.30 L 224.42,96.51 L 228.91,95.84 L 233.42,95.30 L 237.93,94.89 L 242.45,94.60 L 246.97,94.44 L 251.49,94.41 L 256.00,94.50 L 260.51,94.72 L 265.00,95.06 L 269.48,95.53 L 273.93,96.12 L 278.37,96.84 L 282.78,97.68 L 287.16,98.64 L 291.51,99.72 L 295.82,100.92 L 300.09,102.25 L 304.32,103.68 L 308.50,105.24 L 312.63,106.91 L 316.72,108.69 L 320.74,110.59 L 324.71,112.59 L 328.62,114.70 L 332.46,116.92 L 336.23,119.24 L 339.94,121.67 L 343.57,124.19 L 347.13,126.82 L 350.61,129.54 L 354.00,132.35 L 357.32,135.25 L 360.55,138.24 L 363.69,141.32 L 366.74,144.48 L 369.70,147.73 L 372.56,151.05 L 375.33,154.44 L 378.00,157.91 L 380.57,161.45 L 383.03,165.05 L 385.39,168.72 L 387.65,172.45 L 389.80,176.24 L 391.84,180.08 L 393.76,183.98 L 395.58,187.92 L 397.29,191.91 L 398.88,195.94 L 400.36,200.01 L 401.72,204.11 L 402.96,208.25 L 404.09,212.41 L 405.10,216.61 L 405.99,220.82 L 406.76,225.05 L 407.41,229.30 L 407.95,233.56 L 408.36,237.83 L 408.65,242.11 L 408.83,246.38 L 408.88,250.66 L 408.82,254.93 L 408.63,259.20 L 408.33,263.45 L 407.91,267.69 L 407.37,271.91 L 406.71,276.11 L 405.94,280.28 L 405.05,284.43 L 404.04,288.55 L 402.93,292.63 L 401.70,296.68 L 400.36,300.69 L 398.91,304.65 L 397.35,308.57 L 395.68,312.43 L 393.91,316.25 L 392.03,320.01 L 390.05,323.72 L 387.97,327.36 L 385.80,330.94 L 383.52,334.45 L 381.15,337.90 L 378.69,341.27 L 376.13,344.57 L 373.49,347.80 L 370.76,350.94 L 367.95,354.01 L 365.06,356.99 L 362.08,359.89 L 359.04,362.70 L 355.91,365.42 L 352.72,368.05 L 349.45,370.58 L 346.12,373.03 L 342.73,375.37 L 339.27,377.62 L 335.76,379.77 L 332.19,381.81 L 328.57,383.75 L 324.91,385.59 L 321.19,387.33 L 317.44,388.96 L 313.64,390.48 L 309.80,391.89 L 305.93,393.20 L 296.36,366.88 L 299.38,365.57 L 302.36,364.17 L 305.30,362.70 L 308.19,361.14 L 311.03,359.50 L 313.83,357.79 L 316.57,356.00 L 319.25,354.14 L 321.88,352.21 L 324.45,350.21 L 326.96,348.14 L 329.40,346.00 L 331.79,343.80 L 334.10,341.54 L 336.35,339.21 L 338.54,336.83 L 340.65,334.38 L 342.69,331.89 L 344.65,329.34 L 346.54,326.74 L 348.36,324.09 L 350.10,321.40 L 351.76,318.66 L 353.34,315.88 L 354.84,313.06 L 356.25,310.21 L 357.59,307.32 L 358.84,304.39 L 360.01,301.44 L 361.10,298.46 L 362.10,295.46 L 363.01,292.43 L 363.84,289.38 L 364.58,286.32 L 365.23,283.23 L 365.80,280.14 L 366.28,277.04 L 366.67,273.92 L 366.97,270.81 L 367.19,267.69 L 367.32,264.57 L 367.36,261.45 L 367.31,258.33 L 367.18,255.22 L 366.96,252.13 L 366.65,249.04 L 366.26,245.97 L 365.78,242.91 L 365.22,239.87 L 364.58,236.86 L 363.85,233.86 L 363.04,230.90 L 362.14,227.96 L 361.17,225.05 L 360.12,222.17 L 358.99,219.33 L 357.78,216.52 L 356.49,213.76 L 355.13,211.03 L 353.70,208.35 L 352.19,205.71 L 350.62,203.12 L 348.97,200.58 L 347.25,198.09 L 345.47,195.65 L 343.63,193.26 L 341.72,190.94 L 339.75,188.67 L 337.72,186.45 L 335.63,184.30 L 333.48,182.21 L 331.28,180.19 L 329.03,178.23 L 326.73,176.34 L 324.38,174.51 L 321.98,172.76 L 319.54,171.07 L 317.05,169.46 L 314.52,167.91 L 311.96,166.45 L 309.36,165.05 L 306.72,163.73 L 304.06,162.49 L 301.36,161.33 L 298.64,160.24 L 295.89,159.23 L 293.11,158.30 L 290.32,157.44 L 287.51,156.67 L 284.68,155.98 L 281.84,155.37 L 278.98,154.84 L 276.12,154.39 L 273.25,154.02 L 270.37,153.73 L 267.49,153.52 L 264.62,153.40 L 261.74,153.35 L 258.87,153.39 L 256.00,153.50 L 253.14,153.69 L 250.30,153.97 L 247.46,154.32 L 244.64,154.75 L 241.84,155.26 L 239.06,155.85 L 236.30,156.52 L 233.57,157.26 L 230.86,158.07 L 228.17,158.96 L 225.52,159.92 L 222.90,160.96 L 220.32,162.06 L 217.77,163.24 L 215.26,164.49 L 212.78,165.80 L 210.35,167.18 L 207.96,168.62 L 205.62,170.13 L 203.33,171.70 L 201.08,173.34 L 198.88,175.03 L 196.74,176.78 L 194.64,178.59 L 192.61,180.45 L 190.62,182.36 L 188.70,184.33 L 186.83,186.35 L 185.03,188.41 L 183.28,190.53 L 181.60,192.68 L 179.98,194.88 L 178.43,197.12 L 176.94,199.40 L 175.52,201.72 L 174.17,204.07 L 172.88,206.45 L 171.67,208.87 L 170.52,211.31 L 169.45,213.78 L 168.44,216.28 L 167.51,218.80 L 166.65,221.34 L 165.86,223.90 L 165.15,226.48 L 164.51,229.07 L 163.94,231.68 L 163.45,234.29 L 163.03,236.92 L 162.69,239.55 L 162.42,242.18 L 162.22,244.82 L 162.10,247.45 L 162.06,250.09 L 162.08,252.72 L 162.18,255.35 L 162.36,257.96 L 162.60,260.57 L 162.92,263.16 L 163.31,265.74 L 163.77,268.31 L 164.30,270.85 L 164.91,273.38 L 165.58,275.88 L 166.32,278.36 L 167.13,280.81 L 168.00,283.24 L 168.95,285.64 L 169.95,288.00 L 171.02,290.33 L 172.16,292.63 L 173.35,294.89 L 174.61,297.11 L 175.93,299.30 L 177.30,301.44 L 178.73,303.54 L 180.22,305.59 L 181.76,307.60 L 183.35,309.56 L 185.00,311.47 L 186.70,313.33 L 188.44,315.14 L 190.23,316.90 L 192.07,318.61 L 193.95,320.26 L 195.87,321.85 L 197.84,323.38 L 199.84,324.86 L 201.88,326.28 L 203.95,327.64 L 206.06,328.94 L 208.20,330.17 L 210.37,331.34 L 212.57,332.45 L 214.79,333.50 L 217.04,334.48 L 219.31,335.40 L 221.60,336.25 L 223.92,337.03 L 226.24,337.75 Z"/>
      <circle cx="210.85" cy="380.04" r="45.00"/>
      <circle cx="301.15" cy="380.04" r="14.00"/>
    </clipPath>
  </defs>

  <rect x="46.1" y="46.1" width="419.8" height="419.8" rx="94" fill="#E8EDF4"/>
  <rect x="0" y="0" width="512" height="512" fill="url(#arcGrad)" clip-path="url(#arcClip)"/>
</svg>